<svg xmlns="http://www.w3.org/2000/svg" width="38.281" height="40" viewBox="0 0 38.281 40">
  <path id="Path_148" data-name="Path 148" d="M39.141,25.98a8.776,8.776,0,0,0-7.964-8.742V6.41A2.411,2.411,0,0,0,28.768,4h-8.6a4.151,4.151,0,0,0-8.3,0h-8.6A2.411,2.411,0,0,0,.859,6.41V37.592A2.411,2.411,0,0,0,3.267,40h25.5a2.37,2.37,0,0,0,2.408-2.262V34.722a8.777,8.777,0,0,0,7.964-8.742ZM29.614,6.41V17.239a8.658,8.658,0,0,0-1.935.4V8.278A.781.781,0,0,0,26.9,7.5H23.9V5.565h4.866A.847.847,0,0,1,29.614,6.41ZM22.857,21.536h-7.3a.781.781,0,1,0,0,1.563h6.577a8.816,8.816,0,0,0,.033,5.858h-6.61a.781.781,0,1,0,0,1.563h7.355a8.825,8.825,0,0,0,3.2,3.114v1.31H5.92V9.059h20.2v9.269A8.827,8.827,0,0,0,22.857,21.536ZM12.709,5.565a.781.781,0,0,0,.767-.928,2.588,2.588,0,1,1,5.084,0,.781.781,0,0,0,.767.928h3.013V7.5H9.7V5.565ZM28.769,38.438H3.267a.846.846,0,0,1-.846-.846V6.41a.847.847,0,0,1,.846-.846H8.133V7.5H5.138a.781.781,0,0,0-.781.781V35.724a.781.781,0,0,0,.781.781H26.9a.781.781,0,0,0,.781-.781v-1.4a8.652,8.652,0,0,0,1.935.4v3.016a.835.835,0,0,1-.846.7ZM30.4,33.195a7.214,7.214,0,1,1,7.183-7.214A7.207,7.207,0,0,1,30.4,33.195Z" transform="translate(-0.859 0)" fill="#707070"/>
</svg>
