<svg id="Capa_1" enable-background="new 0 0 512.684 512.684" height="512" viewBox="0 0 512.684 512.684" width="512" xmlns="http://www.w3.org/2000/svg"><g><path d="m497.881 216.136c-8.392-7.309-21.07-7.334-29.49-.059l-72.031 62.237c-1.146-1.972-2.551-3.812-4.207-5.468-9.718-9.718-25.046-10.458-35.654-1.721l-62.37 51.363c-15.322 12.619-24.11 31.24-24.11 51.089v44.413c-4.021 3.494-6.579 8.631-6.579 14.364v72.83c0 4.142 3.358 7.5 7.5 7.5s7.5-3.358 7.5-7.5v-72.83c0-2.229 1.814-4.043 4.043-4.043h91.585c2.229 0 4.043 1.814 4.043 4.043v72.83c0 4.142 3.358 7.5 7.5 7.5s7.5-3.358 7.5-7.5v-72.83c0-7.28-4.11-13.613-10.128-16.816v-33.533l17.092-6.364c14.385-5.356 26.432-14.976 34.838-27.82l67.016-102.394c6.125-9.356 4.383-21.948-4.048-29.291zm-8.501 21.076-67.016 102.394c-6.641 10.146-16.157 17.746-27.521 21.977l-29.821 11.104c-3.882 1.445-5.857 5.764-4.412 9.646 1.125 3.019 3.987 4.885 7.03 4.885.115 0 .23-.01.346-.015v26.108h-82.966v-39.733c0-15.351 6.796-29.752 18.646-39.51l62.369-51.363c4.615-3.8 11.285-3.479 15.512.749 4.504 4.504 4.504 11.833 0 16.337l-24.606 24.606c-2.929 2.929-2.929 7.678 0 10.606 2.929 2.929 7.678 2.929 10.606 0l24.606-24.606c4.144-4.144 6.744-9.417 7.525-15.125l78.52-67.844c2.808-2.425 7.034-2.417 9.832.02 2.811 2.448 3.391 6.646 1.35 9.764z"/><path d="m242.664 417.99v-44.413c0-19.585-8.607-38.05-23.616-50.661-3.171-2.665-7.902-2.254-10.567.917s-2.254 7.902.917 10.567c11.608 9.753 18.265 24.033 18.265 39.176v39.733h-82.965v-26.108c.115.005.231.015.346.015 3.043 0 5.905-1.866 7.03-4.885 1.445-3.882-.53-8.201-4.412-9.646l-29.821-11.104c-11.364-4.231-20.881-11.831-27.521-21.977l-67.016-102.391c-2.042-3.119-1.461-7.317 1.35-9.766 2.798-2.437 7.024-2.446 9.832-.02l78.535 67.856c.764 5.532 3.265 10.868 7.51 15.112l24.606 24.606c1.464 1.464 3.384 2.197 5.303 2.197s3.839-.732 5.303-2.197c2.929-2.929 2.929-7.678 0-10.606l-24.606-24.606c-4.504-4.504-4.504-11.833 0-16.337 4.229-4.227 10.897-4.549 15.512-.749l37.599 30.963c3.197 2.634 7.924 2.175 10.557-1.022s2.176-7.924-1.022-10.557l-37.599-30.963c-10.61-8.737-25.938-7.997-35.654 1.721-1.672 1.672-3.07 3.516-4.202 5.472l-72.036-62.24c-8.421-7.277-21.1-7.251-29.49.058-8.431 7.343-10.172 19.935-4.049 29.292l67.016 102.393c8.406 12.844 20.453 22.464 34.838 27.82l17.092 6.364v33.533c-6.018 3.204-10.128 9.536-10.128 16.816v72.83c0 4.142 3.358 7.5 7.5 7.5s7.5-3.358 7.5-7.5v-72.83c0-2.229 1.813-4.043 4.043-4.043h91.585c2.229 0 4.043 1.814 4.043 4.043v72.83c0 4.142 3.358 7.5 7.5 7.5s7.5-3.358 7.5-7.5v-72.83c0-5.732-2.557-10.868-6.578-14.363z"/><path d="m129.912 237.598c65.506 0 118.799-53.293 118.799-118.799s-53.294-118.799-118.799-118.799-118.799 53.293-118.799 118.799 53.293 118.799 118.799 118.799zm0-222.598c57.235 0 103.799 46.564 103.799 103.799s-46.564 103.799-103.799 103.799-103.799-46.564-103.799-103.799 46.564-103.799 103.799-103.799z"/><path d="m103.405 165.911c4.198 3.978 9.693 6.168 15.475 6.168 6.105 0 11.818-2.404 16.089-6.769l15.93-16.29c2.896-2.961 2.843-7.709-.119-10.606-2.961-2.896-7.709-2.843-10.606.119l-15.929 16.289c-1.424 1.456-3.33 2.257-5.365 2.257-1.926 0-3.758-.73-5.157-2.056l-22.5-21.322 10.319-10.888 8.735 8.279c4.635 4.391 12.037 4.251 16.501-.313l43.832-44.818 10.724 10.487-18.81 19.234c-2.896 2.961-2.843 7.709.119 10.606 2.961 2.896 7.709 2.843 10.606-.119l21.073-21.548c2.197-2.247 3.388-5.214 3.353-8.356s-1.292-6.082-3.539-8.278l-15.353-15.013c-2.247-2.197-5.21-3.39-8.356-3.353-3.142.035-6.082 1.292-8.278 3.538l-43.866 44.854-8.771-8.312c-2.281-2.163-5.267-3.31-8.408-3.222-3.141.084-6.061 1.387-8.222 3.667l-14.772 15.587c-4.461 4.707-4.261 12.167.447 16.63z"/><path d="m382.772 237.598c27.876 0 54.977-9.857 76.31-27.755 3.173-2.663 3.587-7.393.925-10.566s-7.393-3.586-10.566-.925c-18.636 15.636-42.312 24.247-66.668 24.247-57.235 0-103.799-46.564-103.799-103.799s46.563-103.8 103.798-103.8 103.799 46.564 103.799 103.799c0 20.474-5.958 40.282-17.23 57.281-2.289 3.452-1.347 8.106 2.105 10.396 3.451 2.289 8.106 1.346 10.396-2.105 12.907-19.465 19.729-42.139 19.729-65.571 0-65.507-53.293-118.8-118.799-118.8s-118.799 53.293-118.799 118.799 53.293 118.799 118.799 118.799z"/><path d="m443.781 76.439-17.202-17.617c-2.188-2.241-5.117-3.495-8.248-3.532-3.131-.04-6.088 1.146-8.329 3.334l-27.224 26.584-27.238-26.597c-2.24-2.188-5.194-3.378-8.329-3.333-3.131.037-6.06 1.292-8.247 3.532l-17.202 17.616c-2.188 2.24-3.372 5.199-3.335 8.33.038 3.13 1.292 6.059 3.532 8.247l26.418 25.797-26.419 25.797c-2.24 2.188-3.494 5.116-3.531 8.247s1.147 6.089 3.334 8.329l17.202 17.616c2.188 2.241 5.117 3.495 8.248 3.532.048 0 .096.001.144.001 3.077 0 5.979-1.181 8.186-3.335l27.237-26.597 27.225 26.584c2.24 2.188 5.213 3.351 8.329 3.333 3.131-.037 6.06-1.292 8.247-3.532l17.202-17.617c4.515-4.624 4.427-12.059-.197-16.577l-26.405-25.784 26.406-25.785c4.623-4.514 4.711-11.95.196-16.573zm-42.577 36.994c-1.445 1.412-2.26 3.346-2.26 5.366s.815 3.955 2.26 5.366l29.555 28.859-12.623 12.927-30.118-29.41c-2.914-2.846-7.566-2.845-10.479 0l-30.132 29.423-12.622-12.926 29.568-28.873c1.445-1.412 2.26-3.346 2.26-5.366s-.815-3.955-2.26-5.366l-29.568-28.873 12.622-12.926 30.132 29.423c2.914 2.845 7.565 2.845 10.479 0l30.118-29.41 12.623 12.927z"/></g></svg>