<?xml version="1.0" standalone="no"?>
<!DOCTYPE svg PUBLIC "-//W3C//DTD SVG 20010904//EN"
 "http://www.w3.org/TR/2001/REC-SVG-20010904/DTD/svg10.dtd">
<svg version="1.0" xmlns="http://www.w3.org/2000/svg"
 width="512.000000pt" height="512.000000pt" viewBox="0 0 512.000000 512.000000"
 preserveAspectRatio="xMidYMid meet">

<g transform="translate(0.000000,512.000000) scale(0.100000,-0.100000)"
fill="#000000" stroke="none">
<path d="M2805 4329 c-37 -21 -946 -934 -964 -969 -14 -26 -16 -43 -9 -67 15
-55 44 -63 238 -63 l170 0 0 -135 0 -135 80 0 80 0 0 210 0 210 -160 0 c-88 0
-160 3 -160 8 0 11 754 762 765 762 12 0 765 -751 765 -763 0 -4 -72 -7 -160
-7 l-160 0 0 -305 0 -305 80 0 80 0 0 230 0 230 181 0 181 0 29 29 c32 33 36
59 15 99 -23 42 -947 960 -979 972 -35 12 -47 12 -72 -1z"/>
<path d="M855 3919 c-64 -18 -60 90 -63 -1516 l-2 -1463 -110 0 -110 0 0 -75
0 -75 1990 0 1990 0 0 75 0 75 -150 0 -150 0 0 444 0 444 129 4 c113 3 133 6
158 24 34 26 44 69 25 109 -22 47 -731 753 -769 766 -44 14 -70 -1 -178 -110
l-89 -91 54 -55 54 -55 68 67 68 68 275 -275 c151 -151 275 -278 275 -282 0
-5 -52 -8 -115 -8 l-115 0 0 -525 0 -525 -320 0 -320 0 0 40 0 40 -80 0 -80 0
0 -40 0 -40 -355 0 -355 0 0 915 c0 628 -3 921 -11 938 -23 52 -24 52 -461 55
l-408 3 0 352 c0 295 -2 356 -15 374 -9 13 -151 79 -403 187 -213 91 -390 166
-392 165 -3 0 -18 -5 -35 -10z m400 -313 l290 -125 0 -88 0 -88 -297 -3 -298
-2 0 215 c0 118 3 215 8 215 4 0 138 -56 297 -124z m-135 -1561 l0 -1105 -85
0 -85 0 0 1105 0 1105 85 0 85 0 0 -1105z m425 0 l0 -1100 -132 -3 -133 -3 0
1106 0 1106 133 -3 132 -3 0 -1100z m883 -227 l-3 -873 -362 -3 -363 -2 0 875
0 875 365 0 365 0 -2 -872z"/>
<path d="M1780 2390 l0 -80 210 0 210 0 0 80 0 80 -210 0 -210 0 0 -80z"/>
<path d="M1780 2070 l0 -80 210 0 210 0 0 80 0 80 -210 0 -210 0 0 -80z"/>
<path d="M1780 1745 l0 -75 210 0 210 0 0 75 0 75 -210 0 -210 0 0 -75z"/>
<path d="M1760 1440 l0 -80 220 0 220 0 0 80 0 80 -220 0 -220 0 0 -80z"/>
<path d="M1760 1110 l0 -80 220 0 220 0 0 80 0 80 -220 0 -220 0 0 -80z"/>
<path d="M3290 2530 l0 -81 78 3 77 3 3 78 3 77 -81 0 -80 0 0 -80z"/>
<path d="M3290 2215 l0 -75 80 0 80 0 0 75 0 75 -80 0 -80 0 0 -75z"/>
<path d="M3290 1895 l0 -75 80 0 80 0 0 75 0 75 -80 0 -80 0 0 -75z"/>
<path d="M3290 1580 l0 -80 80 0 81 0 -3 78 -3 77 -77 3 -78 3 0 -81z"/>
<path d="M3290 1260 l0 -81 78 3 77 3 3 78 3 77 -81 0 -80 0 0 -80z"/>
</g>
</svg>
