<?xml version="1.0" standalone="no"?>
<!DOCTYPE svg PUBLIC "-//W3C//DTD SVG 20010904//EN"
 "http://www.w3.org/TR/2001/REC-SVG-20010904/DTD/svg10.dtd">
<svg version="1.0" xmlns="http://www.w3.org/2000/svg"
 width="225.000000pt" height="225.000000pt" viewBox="0 0 225.000000 225.000000"
 preserveAspectRatio="xMidYMid meet">

<g transform="translate(0.000000,225.000000) scale(0.100000,-0.100000)"
fill="#000000" stroke="none">
<path d="M521 1894 c-21 -26 -21 -35 -21 -650 l0 -623 24 -28 24 -28 324 -3
324 -3 18 -114 c15 -95 21 -115 36 -115 20 0 216 182 225 209 4 15 18 20 72
23 57 4 69 8 89 32 24 27 24 29 24 264 l0 238 45 134 c25 74 45 143 45 153 0
33 -31 87 -61 104 l-29 17 0 182 c0 168 -1 183 -21 208 l-20 26 -539 0 -539 0
-20 -26z m1099 -23 c6 -11 10 -90 10 -185 l0 -166 -37 0 c-70 0 -116 -36 -143
-112 l-10 -28 -240 0 c-207 0 -240 -2 -240 -15 0 -13 33 -15 236 -15 222 0
235 -1 230 -18 -4 -10 -21 -63 -39 -117 l-34 -100 -197 -3 c-151 -2 -197 -5
-193 -15 3 -9 54 -13 191 -15 174 -2 187 -4 182 -20 -4 -10 -21 -63 -39 -117
l-34 -100 -152 -3 c-115 -2 -151 -6 -148 -15 2 -8 45 -13 146 -15 107 -2 141
-6 138 -15 -2 -7 -17 -54 -33 -104 l-29 -93 -317 0 c-304 0 -318 1 -328 19 -6
13 -10 227 -10 626 0 399 4 613 10 626 10 18 27 19 540 19 513 0 530 -1 540
-19z m45 -405 c33 -21 58 -72 51 -101 l-6 -24 -108 36 c-59 20 -109 37 -111
39 -8 7 31 56 52 64 30 13 92 5 122 -14z m-70 -120 c84 -28 99 -36 97 -52 -2
-10 -5 -20 -6 -21 -1 -2 -50 13 -109 33 -86 29 -107 39 -107 55 0 26 10 24
125 -15z m-63 -58 c53 -17 67 -26 62 -38 -3 -8 -50 -147 -105 -309 -66 -196
-96 -298 -89 -305 5 -5 12 -7 16 -4 3 4 52 143 109 310 99 291 118 333 140
298 7 -11 -211 -676 -224 -685 -13 -7 -204 60 -209 73 -4 14 217 682 226 682
3 0 36 -10 74 -22z m88 -668 c-9 -16 -21 -20 -65 -20 -30 0 -55 3 -55 7 0 5
28 91 63 193 l62 185 3 -173 c1 -107 -2 -180 -8 -192z m-292 -67 c45 -16 82
-31 82 -35 0 -4 -20 -26 -43 -47 -43 -40 -43 -40 -83 -26 -38 13 -39 15 -50
74 -8 46 -8 61 0 61 7 0 49 -12 94 -27z m-40 -141 c9 -7 8 -13 -8 -27 -11 -10
-20 -13 -20 -7 0 6 -3 17 -6 26 -7 17 12 21 34 8z"/>
<path d="M813 1668 l-53 -52 -33 32 c-38 37 -47 39 -47 14 0 -10 20 -34 44
-55 l45 -37 55 63 c51 57 68 87 48 87 -4 0 -31 -23 -59 -52z"/>
<path d="M960 1635 c0 -13 32 -15 263 -13 166 2 262 7 262 13 0 6 -96 11 -262
13 -231 2 -263 0 -263 -13z"/>
<path d="M808 1397 l-46 -52 -36 34 c-25 25 -39 32 -47 24 -7 -7 4 -24 38 -57
l48 -47 57 63 c32 35 58 69 58 76 0 25 -26 10 -72 -41z"/>
<path d="M809 1129 l-44 -50 -38 32 c-59 49 -66 22 -9 -34 l49 -48 56 65 c32
35 57 69 57 75 0 24 -28 8 -71 -40z"/>
<path d="M810 860 l-42 -50 -39 32 c-61 49 -69 23 -11 -35 l47 -47 58 64 c31
36 57 69 57 75 0 25 -31 8 -70 -39z"/>
</g>
</svg>
