<?xml version="1.0" standalone="no"?>
<!DOCTYPE svg PUBLIC "-//W3C//DTD SVG 20010904//EN"
 "http://www.w3.org/TR/2001/REC-SVG-20010904/DTD/svg10.dtd">
<svg version="1.0" xmlns="http://www.w3.org/2000/svg"
 width="225.000000pt" height="225.000000pt" viewBox="0 0 225.000000 225.000000"
 preserveAspectRatio="xMidYMid meet">

<g transform="translate(0.000000,225.000000) scale(0.100000,-0.100000)"
fill="#000000" stroke="none">
<path d="M993 2240 c-474 -60 -860 -408 -965 -872 -25 -110 -29 -333 -9 -438
46 -237 157 -444 324 -607 431 -421 1116 -426 1552 -11 305 289 423 714 310
1115 -31 110 -119 288 -184 374 -62 82 -179 193 -261 249 -123 83 -296 155
-433 179 -87 16 -253 21 -334 11z m369 -169 c303 -80 560 -304 668 -583 98
-253 91 -539 -19 -774 -122 -260 -360 -457 -650 -536 -111 -31 -372 -31 -483
0 -426 117 -728 507 -728 942 0 469 316 860 777 961 116 25 321 21 435 -10z"/>
<path d="M1205 1495 c-93 -37 -193 -75 -220 -86 -89 -34 -115 -71 -200 -289
-42 -107 -82 -207 -90 -222 -19 -38 -13 -112 11 -145 68 -91 101 -89 384 20
291 112 273 95 383 377 47 118 88 230 91 248 10 42 -8 92 -44 127 -25 24 -40
29 -87 32 -52 3 -77 -4 -228 -62z m212 -87 c-3 -7 -37 -96 -77 -198 -39 -102
-81 -195 -93 -207 -19 -18 -405 -178 -413 -171 -7 8 150 396 167 413 15 16
382 170 413 174 4 1 6 -5 3 -11z"/>
</g>
</svg>
