<svg xmlns="http://www.w3.org/2000/svg" width="26.367" height="30" viewBox="0 0 26.367 30">
  <g id="notification" transform="translate(-1.816)">
    <path id="Path_5023" data-name="Path 5023" d="M24.082,15.4V12.6a9.1,9.1,0,0,0-6.445-8.691V2.637a2.637,2.637,0,0,0-5.273,0v1.27A9.1,9.1,0,0,0,5.918,12.6v2.8A13.8,13.8,0,0,1,2.061,25,.879.879,0,0,0,2.7,26.484h8a4.395,4.395,0,0,0,8.612,0h8A.879.879,0,0,0,27.939,25,13.8,13.8,0,0,1,24.082,15.4ZM14.121,2.637a.879.879,0,1,1,1.758,0v.922C15.59,3.53,15.3,3.516,15,3.516s-.59.015-.879.043ZM15,28.242a2.641,2.641,0,0,1-2.486-1.758h4.971A2.641,2.641,0,0,1,15,28.242ZM4.59,24.727A15.54,15.54,0,0,0,7.676,15.4V12.6a7.324,7.324,0,0,1,14.648,0v2.8a15.539,15.539,0,0,0,3.086,9.324Z" fill="#707070"/>
  </g>
</svg>
