<?xml version="1.0" standalone="no"?>
<!DOCTYPE svg PUBLIC "-//W3C//DTD SVG 20010904//EN"
 "http://www.w3.org/TR/2001/REC-SVG-20010904/DTD/svg10.dtd">
<svg version="1.0" xmlns="http://www.w3.org/2000/svg"
 width="908.000000pt" height="628.000000pt" viewBox="0 0 908.000000 628.000000"
 preserveAspectRatio="xMidYMid meet">

<g transform="translate(0.000000,628.000000) scale(0.100000,-0.100000)"
fill="#000000" stroke="none">
<path d="M5174 4915 c-3 -8 -3 -18 0 -23 2 -4 -870 -838 -1940 -1853 -1171
-1110 -1943 -1850 -1942 -1859 3 -13 335 -15 2961 -18 l2957 -2 0 65 0 65
-2009 2 -2008 3 1493 1369 c822 753 1494 1375 1494 1382 0 7 -51 57 -112 112
-62 55 -282 250 -488 435 -206 185 -381 337 -388 337 -7 0 -15 -7 -18 -15z
m66 -85 c0 -4 -6 -13 -14 -19 -18 -15 -41 10 -25 26 12 12 39 7 39 -7z m364
-445 c207 -187 376 -342 376 -346 0 -9 -618 -574 -626 -573 -14 3 -764 668
-762 675 6 15 621 590 628 587 5 -2 177 -156 384 -343z m-899 -421 c85 -75
155 -138 155 -141 0 -3 -33 23 -72 59 -40 35 -112 98 -161 141 -48 42 -85 77
-82 77 3 0 76 -61 160 -136z m198 -249 c201 -176 364 -324 363 -330 -1 -5
-513 -478 -1137 -1051 l-1134 -1043 -715 0 -715 -1 45 44 c25 24 686 647 1469
1385 1285 1211 1425 1341 1441 1329 10 -7 183 -157 383 -333z m217 -115 c96
-84 182 -159 190 -168 13 -13 13 -13 -6 -1 -32 22 -414 360 -414 367 0 3 12
-6 28 -20 15 -14 106 -94 202 -178z m-3695 -2370 c-10 -11 -25 -20 -33 -20
-12 0 -12 4 3 20 10 11 25 20 33 20 12 0 12 -4 -3 -20z"/>
</g>
</svg>
